<svg xmlns="http://www.w3.org/2000/svg" width="100" height="93.75" viewBox="0 0 100 93.75"><path d="M50.852 4.38l-2.41 1.76s5.125 7.684 5.808 14.105c.707 6.657-.143 9.065-.143 9.065s-9.12-4.526-14.235-5.478c-9.012-1.677-19.76-.046-19.76-.046s6.8 6.232 16.062 7.893c4.66.834 17.027 0 17.027 0s.38.38-.65 3.437c-.664 1.966-2.285 4.488-2.285 4.488s-3.158-3.597-5.506-4.77c-2.35-1.175-6.658-1.7-8.5.707-2.46 3.216.792 8.037 3.753 9.05 3.38 1.154 7.86.037 8.994-1.213.593-.655-.188 3.02-2.853 4.737-3.702 2.387-3.523 2.643-3.523 2.643s-5.114-4.604-8.637-6.364-10.443-1.562-10.443-1.562 5.02 5.413 7.61 6.752c2.975 1.537 10.766 1.96 10.766 1.96s-.385 2.692-2.954 4.108l-2.57 1.417s-2.267-4.674-4.816-5.947c-2.55-1.275-7.42-2.266-8.782.707-1.558 3.4 2.502 6.846 4.107 7.318 1.607.472 6.94.473 7.792-.094.85-.566 0-.283-2.267 1.7-2.266 1.982-7.368 4.39-11.33 8.073-3.964 3.682-5.67 15.586-5.67 15.586s6.094-3.12 9.918-7.796c3.825-4.675 6.8-12.748 6.8-12.748s2.55-3.4 5.24-4.816c2.69-1.417 4.25-3.4 4.25-3.4l.425 1.983s-2.765 1.23-4.674 3.683c-2.974 3.824-1.162 8.19 1.58 8.782 3.945.85 6.494-1.274 6.777-5.665.348-5.38-2.69-7.083-2.69-7.083l-.708-2.407 3.825-3.824s-.142 5.382 2.266 10.34c2.408 4.957 8.64 10.764 8.64 10.764s-.56-10.454-1.275-13.314c-.707-2.832-7.365-9.326-7.365-9.326l4.108-8.095 1.842-6.657s-1.254 6.736-.283 9.562c.913 2.663 4.746 5.526 9.058 3.09 3.258-1.842 2.877-6.77-.135-10.244-2.97-3.424-7.648-3.258-7.648-3.258s1.416-4.39 1.416-5.524.52-1.486.52-1.486 4.583 7.96 12.23 13.385c7.735 5.49 15.155 7.647 15.155 7.647s-6.176-11.143-11.5-15.64c-6.374-5.38-15.412-8.864-15.412-8.864s.29-1.308-1.275-8.074c-1.218-5.256-4.6-9.983-5.666-11.05z"/></svg>