<svg xmlns="http://www.w3.org/2000/svg" width="512" height="512" viewBox="0 0 512 512"><path d="M508.452 163.33C482.904 131.667 435.217 112 384 112s-98.904 19.668-124.452 51.33c-2.296 2.844-3.548 6.39-3.548 10.046 0-3.656-1.252-7.202-3.548-10.047C226.905 131.667 179.218 112 128 112S29.095 131.668 3.548 163.33C1.252 166.173 0 169.72 0 173.375v320c0 6.782 4.277 12.828 10.672 15.087s13.52.24 17.78-5.04C48.072 479.107 86.218 464 128 464s79.927 15.106 99.548 39.424c3.098 3.84 7.71 5.954 12.455 5.954h31.994c4.745 0 9.358-2.115 12.455-5.954C304.072 479.106 342.218 464 384 464s79.926 15.106 99.548 39.424c4.26 5.277 11.383 7.297 17.78 5.04S512 500.157 512 493.375v-320c0-3.656-1.252-7.202-3.548-10.047zM224 458.29C197.99 441.642 163.86 432 128 432s-69.99 9.642-96 26.29V179.34C52.452 157.427 88.61 144 128 144s75.548 13.428 96 35.34v278.95zm256 0C453.988 441.64 419.86 432 384 432s-69.988 9.642-96 26.29V179.34c20.452-21.912 56.61-35.34 96-35.34s75.548 13.427 96 35.34v278.95z"/><path d="M320 208h128v32H320v-32zM320 272h128v32H320v-32zM320 336h96v32h-96v-32zM64 208h128v32H64v-32zM64 272h128v32H64v-32zM64 336h96v32H64v-32z"/></svg>