<svg xmlns="http://www.w3.org/2000/svg" width="544" height="512" viewBox="0 0 544 512"><path d="M224 272h32v32h-32v-32z"/><path d="M0 176v288h544V176H0zm96 256H32v-64h32v32h32v32zm0-192H64v32H32v-64h64v32zm240 64c8.837 0 16 7.163 16 16v64c0 8.837-7.163 16-16 16h-48v16c0 8.837-7.163 16-16 16s-16-7.163-16-16v-16h-48c-8.836 0-16-7.163-16-16s7.164-16 16-16h48v-32h-48c-8.836 0-16-7.163-16-16v-64c0-8.836 7.164-16 16-16h48v-16c0-8.836 7.163-16 16-16s16 7.164 16 16v16h48c8.837 0 16 7.164 16 16s-7.163 16-16 16h-48v32h48zm176 128h-64v-32h32v-32h32v64zm0-160h-32v-32h-32v-32h64v64z"/><path d="M288 336h32v32h-32v-32z"/></svg>