<?xml version="1.0" encoding="utf-8"?>
<!-- Generated by IcoMoon.io -->
<!DOCTYPE svg PUBLIC "-//W3C//DTD SVG 1.1//EN" "http://www.w3.org/Graphics/SVG/1.1/DTD/svg11.dtd">
<svg version="1.1" xmlns="http://www.w3.org/2000/svg" xmlns:xlink="http://www.w3.org/1999/xlink" width="512" height="512" viewBox="0 0 512 512"><g id="icomoon-ignore">
</g>
<path d="M508.452 163.329c-25.548-31.661-73.235-51.329-124.452-51.329s-98.904 19.668-124.452 51.329c-2.296 2.845-3.548 6.391-3.548 10.047 0-3.656-1.252-7.202-3.548-10.047-25.547-31.661-73.234-51.329-124.452-51.329s-98.905 19.668-124.452 51.329c-2.296 2.845-3.548 6.391-3.548 10.047v320c0 6.782 4.277 12.828 10.672 15.087s13.521 0.24 17.78-5.039c19.621-24.318 57.766-39.424 99.548-39.424s79.927 15.106 99.548 39.424c3.098 3.839 7.709 5.954 12.455 5.954h31.994c4.745 0 9.358-2.115 12.455-5.954 19.621-24.318 57.766-39.424 99.548-39.424s79.926 15.106 99.548 39.424c4.26 5.277 11.383 7.297 17.78 5.039s10.672-8.305 10.672-15.087v-320c0-3.656-1.252-7.202-3.548-10.047zM224 458.29c-26.011-16.648-60.14-26.29-96-26.29-35.859 0-69.989 9.642-96 26.289v-278.949c20.452-21.913 56.61-35.34 96-35.34s75.548 13.428 96 35.34v278.95zM480 458.289c-26.012-16.647-60.141-26.289-96-26.289s-69.988 9.642-96 26.29v-278.95c20.452-21.912 56.61-35.34 96-35.34s75.548 13.427 96 35.34v278.949z"></path>
<path d="M320 208h128v32h-128v-32z"></path>
<path d="M320 272h128v32h-128v-32z"></path>
<path d="M320 336h96v32h-96v-32z"></path>
<path d="M64 208h128v32h-128v-32z"></path>
<path d="M64 272h128v32h-128v-32z"></path>
<path d="M64 336h96v32h-96v-32z"></path>
</svg>
