<?xml version="1.0" encoding="utf-8"?>
<!-- Generated by IcoMoon.io -->
<!DOCTYPE svg PUBLIC "-//W3C//DTD SVG 1.1//EN" "http://www.w3.org/Graphics/SVG/1.1/DTD/svg11.dtd">
<svg version="1.1" xmlns="http://www.w3.org/2000/svg" xmlns:xlink="http://www.w3.org/1999/xlink" width="544" height="512" viewBox="0 0 544 512"><g id="icomoon-ignore">
</g>
<path d="M224 272h32v32h-32v-32z"></path>
<path d="M0 176v288h544v-288h-544zM96 432h-64v-64h32v32h32v32zM96 240h-32v32h-32v-64h64v32zM336 304c8.837 0 16 7.163 16 16v64c0 8.837-7.163 16-16 16h-48v16c0 8.837-7.163 16-16 16s-16-7.163-16-16v-16h-48c-8.836 0-16-7.163-16-16s7.164-16 16-16h48v-32h-48c-8.836 0-16-7.163-16-16v-64c0-8.836 7.164-16 16-16h48v-16c0-8.836 7.163-16 16-16s16 7.164 16 16v16h48c8.837 0 16 7.164 16 16s-7.163 16-16 16h-48v32h48zM512 432h-64v-32h32v-32h32v64zM512 272h-32v-32h-32v-32h64v64z"></path>
<path d="M288 336h32v32h-32v-32z"></path>
</svg>
