<svg xmlns="http://www.w3.org/2000/svg" xmlns:xlink="http://www.w3.org/1999/xlink" version="1.1" id="Layer_1" x="0px" y="0px" width="100px" height="93.75px" viewBox="0 0 100 93.75" enable-background="new 0 0 100 93.75" xml:space="preserve">
<g id="Layer_2" display="none">
	<path display="inline" d="M50.852,4.379l-2.41,1.761c0,0,5.125,7.684,5.808,14.105c0.707,6.657-0.143,9.065-0.143,9.065   s-9.121-4.526-14.235-5.478c-9.012-1.677-19.759-0.046-19.759-0.046s6.799,6.232,16.061,7.893c4.66,0.835,17.027,0,17.027,0   s0.38,0.382-0.651,3.438c-0.664,1.966-2.285,4.488-2.285,4.488s-3.158-3.597-5.506-4.771c-2.349-1.174-6.657-1.7-8.499,0.708   c-2.459,3.216,0.792,8.037,3.753,9.049c3.379,1.155,8.367,0.591,8.428-0.29s1.236,1.174-2.287,3.816   c-3.523,2.643-3.523,2.643-3.523,2.643s-5.115-4.604-8.638-6.364s-10.443-1.562-10.443-1.562s5.021,5.413,7.611,6.752   c2.974,1.537,10.765,1.961,10.765,1.961s-0.385,2.691-2.954,4.107c-2.569,1.417-2.57,1.417-2.57,1.417s-2.267-4.675-4.816-5.948   c-2.55-1.275-7.419-2.266-8.782,0.707c-1.558,3.4,1.558,6.232,4.391,7.508c0,0,6.657,0.283,7.507-0.283   c0.85-0.566,0-0.283-2.267,1.699c-2.266,1.983-7.368,4.391-11.331,8.074c-3.963,3.682-5.67,15.586-5.67,15.586   s6.095-3.121,9.919-7.796c3.825-4.675,6.799-12.748,6.799-12.748s2.55-3.399,5.241-4.815c2.691-1.417,4.25-3.4,4.25-3.4   l0.425,1.983c0,0-2.765,1.229-4.674,3.683c-2.974,3.824-1.162,8.191,1.579,8.782c3.946,0.85,6.495-1.274,6.778-5.665   c0.347-5.38-2.691-7.083-2.691-7.083l-0.708-2.407l3.825-3.824c0,0-0.142,5.382,2.266,10.34c2.408,4.957,8.64,10.764,8.64,10.764   s-0.56-10.454-1.275-13.314c-0.707-2.832-7.365-9.326-7.365-9.326l4.108-8.095l1.841-6.657l0,0c0,0-1.254,6.736-0.283,9.562   c0.914,2.663,4.747,5.526,9.059,3.089c3.258-1.841,2.877-6.77-0.135-10.243c-2.97-3.424-7.648-3.258-7.648-3.258   s1.416-4.391,1.416-5.524s0.518-1.487,0.518-1.487s4.584,7.959,12.23,13.385c7.736,5.49,15.156,7.648,15.156,7.648   s-6.176-11.143-11.5-15.639c-6.374-5.382-15.412-8.865-15.412-8.865s0.29-1.308-1.275-8.074C55.3,10.174,51.919,5.447,50.852,4.379   z"/>
</g>
<g id="Layer_2_copy">
	<path d="M50.852,4.379l-2.41,1.761c0,0,5.125,7.684,5.808,14.105c0.707,6.657-0.143,9.065-0.143,9.065s-9.121-4.526-14.235-5.478   c-9.012-1.677-19.759-0.046-19.759-0.046s6.799,6.232,16.061,7.893c4.66,0.835,17.027,0,17.027,0s0.38,0.382-0.651,3.438   c-0.664,1.966-2.285,4.488-2.285,4.488s-3.158-3.597-5.506-4.771c-2.349-1.174-6.657-1.7-8.499,0.708   c-2.459,3.216,0.792,8.037,3.753,9.049c3.379,1.155,7.861,0.038,8.994-1.212c0.593-0.654-0.188,3.021-2.853,4.738   c-3.702,2.387-3.523,2.643-3.523,2.643s-5.115-4.604-8.638-6.364s-10.443-1.562-10.443-1.562s5.021,5.413,7.611,6.752   c2.974,1.537,10.765,1.961,10.765,1.961s-0.385,2.691-2.954,4.107c-2.569,1.417-2.57,1.417-2.57,1.417s-2.267-4.675-4.816-5.948   c-2.55-1.275-7.419-2.266-8.782,0.707c-1.558,3.4,2.502,6.846,4.107,7.318c1.606,0.472,6.94,0.473,7.791-0.094   c0.85-0.566,0-0.283-2.267,1.699c-2.266,1.983-7.368,4.391-11.331,8.074c-3.963,3.682-5.67,15.586-5.67,15.586   s6.095-3.121,9.919-7.796c3.825-4.675,6.799-12.748,6.799-12.748s2.55-3.399,5.241-4.815c2.691-1.417,4.25-3.4,4.25-3.4   l0.425,1.983c0,0-2.765,1.229-4.674,3.683c-2.974,3.824-1.162,8.191,1.579,8.782c3.946,0.85,6.495-1.274,6.778-5.665   c0.347-5.38-2.691-7.083-2.691-7.083l-0.708-2.407l3.825-3.824c0,0-0.142,5.382,2.266,10.34c2.408,4.957,8.64,10.764,8.64,10.764   s-0.56-10.454-1.275-13.314c-0.707-2.832-7.365-9.326-7.365-9.326l4.108-8.095l1.841-6.657l0,0c0,0-1.254,6.736-0.283,9.562   c0.914,2.663,4.747,5.526,9.059,3.089c3.258-1.841,2.877-6.77-0.135-10.243c-2.97-3.424-7.648-3.258-7.648-3.258   s1.416-4.391,1.416-5.524s0.518-1.487,0.518-1.487s4.584,7.959,12.23,13.385c7.736,5.49,15.156,7.648,15.156,7.648   s-6.176-11.143-11.5-15.639c-6.374-5.382-15.412-8.865-15.412-8.865s0.29-1.308-1.275-8.074C55.3,10.174,51.919,5.447,50.852,4.379   z"/>
</g>
</svg>